<svg class="w-full h-full drop-shadow-[0_0_5px_rgba(255,255,255,0.3)] object-contain" viewBox="0 0 1000 1000" xmlns="http://www.w3.org/2000/svg">
    <defs>
    <linearGradient id="whiteGlow" x1="0%" x2="100%" y1="0%" y2="100%">
    <stop offset="0%" style="stop-color:#FFFFFF;stop-opacity:0.9"></stop>
    <stop offset="100%" style="stop-color:#E0E0E0;stop-opacity:0.5"></stop>
    </linearGradient>
    </defs>
    <g fill="none" stroke="url(#whiteGlow)" stroke-linecap="round" stroke-linejoin="round" stroke-width="1.2" transform="translate(100, 50) scale(0.9)">
    <path d="M450 180 L350 120 L440 220"></path>
    <path d="M350 120 L370 160"></path>
    <path d="M360 140 L460 210"></path>
    <path d="M440 220 C460 210, 490 200, 520 220 C540 235, 545 260, 530 280"></path>
    <circle cx="490" cy="240" r="8"></circle>
    <path d="M520 220 L550 180 M510 210 L530 170 M500 210 L510 160"></path>
    <path d="M530 280 L560 320 L540 380 L500 420 L450 400"></path>
    <path d="M560 320 L600 330 M540 380 L590 390"></path>
    <rect height="30" rx="2" transform="rotate(20 500 350)" width="60" x="470" y="335"></rect>
    <path d="M450 400 Q300 300 200 250 T100 200"></path>
    <path d="M200 250 L220 300 M150 225 L170 280 M100 200 L120 260"></path>
    <path d="M220 300 Q320 380 440 420"></path>
    <path d="M530 280 Q650 200 750 150"></path>
    <path d="M650 200 L670 240 M700 175 L720 220"></path>
    <path d="M750 150 L730 250 Q650 320 560 320"></path>
    <path d="M500 420 L480 550 L520 600 L560 550 L540 380"></path>
    <path d="M480 550 L500 500 M560 550 L540 500"></path>
    <g transform="translate(600, 400) rotate(-45)">
    <path d="M0 0 L40 -20 L80 0 L40 20 Z"></path>
    <circle cx="20" cy="0" r="3"></circle>
    <rect height="30" width="20" x="80" y="-15"></rect>
    <rect height="30" width="20" x="105" y="-15"></rect>
    <rect height="30" width="20" x="130" y="-15"></rect>
    <path d="M150 0 L250 0"></path>
    <path d="M250 0 L230 -20 M250 0 L230 20"></path>
    <path d="M90 -15 L100 -35 M115 -15 L125 -35 M140 -15 L150 -35"></path>
    </g>
    <line stroke-dasharray="4 4" x1="450" x2="600" y1="400" y2="400"></line>
    <circle cx="600" cy="400" r="5"></circle>
    <circle cx="350" cy="120" r="3"></circle>
    <circle cx="100" cy="200" r="3"></circle>
    <circle cx="750" cy="150" r="3"></circle>
    <circle cx="520" cy="600" r="3"></circle>
    </g>
</svg>
